<svg xmlns="http://www.w3.org/2000/svg" viewBox="0 0 512 512">
  <path fill="#00A0FF" d="M98.6 31.3c-10.9 5.9-18.3 17.4-18.3 32.2v385c0 14.8 7.4 26.3 18.3 32.2L300.2 256 98.6 31.3z"/>
  <path fill="#00F076" d="M363.7 185.1 300.2 256l63.5 70.9 86.6-49.3c27.8-15.8 27.8-28.1 0-43.9l-86.6-48.6z"/>
  <path fill="#FFCA28" d="m98.6 31.3 201.6 224.7 63.5-70.9L124.8 49.1c-9.2-5.2-18.2-10.2-26.2-17.8z"/>
  <path fill="#F44336" d="M98.6 480.7c8-7.6 17-12.6 26.2-17.8l238.9-136-63.5-70.9L98.6 480.7z"/>
</svg>
